<?xml version="1.0" standalone="no"?>
<!DOCTYPE svg PUBLIC "-//W3C//DTD SVG 20010904//EN"
 "http://www.w3.org/TR/2001/REC-SVG-20010904/DTD/svg10.dtd">
<svg version="1.0" xmlns="http://www.w3.org/2000/svg"
 width="4321.000000pt" height="2419.000000pt" viewBox="0 0 4321.000000 2419.000000"
 preserveAspectRatio="xMidYMid meet">

<g transform="translate(0.000000,2419.000000) scale(0.100000,-0.100000)"
fill="#000000" stroke="none">
<path d="M12724 23545 c-3 -8 4 -74 15 -146 73 -447 72 -904 -4 -1314 -117
-634 -393 -1249 -794 -1770 -257 -335 -533 -610 -961 -961 -74 -61 -324 -265
-555 -454 -1588 -1301 -2234 -1903 -2686 -2508 -177 -237 -300 -451 -392 -682
-136 -341 -154 -659 -56 -976 69 -223 301 -664 507 -964 257 -375 549 -757
871 -1140 90 -106 365 -424 381 -440 3 -3 50 -54 105 -115 124 -137 326 -354
426 -460 41 -44 113 -120 159 -170 47 -49 173 -178 281 -285 240 -237 238
-221 -12 115 -168 227 -545 813 -756 1179 -431 744 -674 1316 -790 1861 -24
117 -27 150 -28 335 0 190 2 213 27 311 107 422 367 874 799 1395 405 486 814
897 2384 2393 225 215 280 268 425 417 573 587 940 1301 1066 2079 72 437 56
971 -42 1470 -55 278 -107 463 -164 580 -37 78 -143 243 -164 257 -18 12 -36
9 -42 -7z"/>
<path d="M15375 18853 c-42 -9 -538 -165 -666 -209 -411 -141 -889 -332 -1254
-502 -782 -363 -1360 -716 -1880 -1148 -150 -124 -439 -409 -542 -534 -371
-449 -584 -910 -643 -1394 -14 -117 -14 -395 0 -516 55 -456 233 -920 513
-1335 22 -33 154 -220 292 -415 282 -398 370 -529 437 -645 174 -306 225 -478
215 -735 -8 -219 -45 -339 -184 -595 -98 -182 -198 -338 -354 -557 -100 -139
-123 -178 -108 -178 20 0 249 149 429 279 365 264 729 607 953 899 62 80 177
263 221 350 55 111 107 260 132 382 70 340 -12 725 -257 1213 -107 212 -190
347 -527 863 -362 556 -472 819 -472 1135 0 263 98 541 297 844 157 238 289
394 572 675 500 498 1216 1046 2146 1644 287 185 285 184 455 291 265 167 280
177 274 186 -5 9 -15 10 -49 2z"/>
<path d="M22598 14889 c-17 -9 -18 -194 -18 -3647 0 -2388 -4 -3694 -10 -3802
-37 -578 -202 -1074 -485 -1448 -125 -166 -341 -361 -502 -453 -32 -18 -104
-54 -161 -80 -57 -25 -104 -48 -105 -51 -2 -5 87 -113 363 -438 191 -225 206
-240 239 -240 66 0 358 121 536 223 212 120 363 235 535 408 192 191 349 415
486 689 206 414 322 844 365 1345 15 189 15 7473 -1 7489 -15 15 -1217 20
-1242 5z"/>
<path d="M27130 12904 c-630 -35 -1381 -201 -1890 -417 -123 -52 -168 -81
-176 -112 -4 -16 14 -98 49 -228 31 -111 70 -256 87 -322 17 -66 37 -126 45
-134 13 -13 41 -6 232 57 542 179 940 258 1398 277 158 7 377 -4 520 -26 433
-66 681 -314 775 -778 33 -165 43 -278 44 -523 1 -212 -1 -239 -16 -254 -14
-15 -45 -19 -165 -26 -1119 -58 -1515 -111 -1913 -257 -239 -88 -403 -171
-600 -303 -521 -351 -770 -814 -773 -1433 -1 -188 9 -287 48 -465 160 -728
556 -1079 1357 -1204 352 -55 541 -58 773 -10 507 103 945 316 1324 643 46 39
86 71 91 71 28 0 39 -40 96 -360 27 -151 39 -199 54 -215 20 -19 33 -20 456
-20 376 0 436 2 444 15 14 22 13 4359 0 4470 -67 545 -300 951 -694 1211 -267
176 -562 278 -936 324 -122 15 -500 26 -630 19z m1068 -3266 c9 -9 12 -176 12
-691 0 -599 -2 -682 -16 -705 -21 -36 -176 -158 -337 -265 -222 -148 -445
-250 -682 -313 -133 -35 -358 -44 -485 -20 -215 40 -411 152 -530 298 -70 88
-135 223 -167 348 -24 93 -27 125 -27 270 0 148 3 176 28 275 29 113 93 263
140 325 111 147 261 250 476 328 242 88 429 117 900 142 113 6 228 12 255 13
155 10 422 6 433 -5z"/>
<path d="M38155 12899 c-536 -34 -1051 -141 -1618 -335 -166 -57 -370 -153
-380 -177 -7 -18 -9 -9 60 -267 30 -113 68 -257 85 -320 16 -63 32 -117 34
-119 2 -2 100 26 216 64 652 207 1030 278 1503 279 374 1 577 -34 774 -134 50
-25 147 -95 186 -134 39 -39 103 -132 135 -196 113 -224 160 -487 160 -886 0
-183 -2 -204 -19 -225 -18 -22 -26 -24 -272 -36 -455 -22 -946 -63 -1187 -99
-759 -111 -1425 -483 -1742 -974 -106 -165 -177 -354 -221 -590 -30 -166 -33
-498 -6 -660 52 -306 173 -616 312 -799 57 -74 186 -198 263 -250 208 -141
547 -260 872 -306 482 -69 1031 32 1480 273 175 94 410 250 495 329 66 62 149
124 163 121 12 -2 26 -62 64 -268 27 -145 54 -275 61 -289 7 -15 25 -28 45
-33 18 -5 217 -7 443 -6 393 3 411 4 425 22 12 17 14 328 14 2165 0 1319 -4
2192 -10 2265 -18 210 -79 439 -171 634 -77 165 -167 292 -298 423 -409 408
-1022 582 -1866 528z m1136 -3266 c12 -13 14 -134 14 -692 0 -779 12 -693
-113 -792 -328 -260 -659 -428 -974 -496 -120 -26 -384 -25 -488 1 -290 74
-508 262 -610 527 -96 248 -75 631 46 872 123 243 353 399 722 491 187 47 367
68 722 86 118 6 235 12 260 14 25 1 127 3 226 4 158 2 183 0 195 -15z"/>
<path d="M40666 12777 c-10 -7 -17 -22 -14 -33 2 -14 14 -20 49 -24 79 -9 79
-10 79 -194 0 -130 3 -166 16 -184 19 -27 60 -29 74 -3 6 11 10 88 10 178 0
189 2 195 81 203 43 4 55 9 57 24 8 38 -23 46 -183 46 -109 0 -156 -4 -169
-13z"/>
<path d="M41125 12777 c-19 -15 -20 -27 -19 -227 0 -226 1 -230 52 -230 29 0
42 33 42 113 0 63 14 132 29 141 4 3 30 -49 57 -115 72 -178 99 -183 164 -29
23 55 52 112 63 127 19 24 21 25 28 7 4 -10 8 -61 8 -112 1 -99 11 -132 39
-132 39 0 42 17 42 237 0 237 1 233 -73 233 -46 0 -58 -17 -108 -140 -46 -115
-77 -166 -90 -153 -5 5 -32 65 -59 133 -28 69 -57 131 -64 138 -21 21 -88 26
-111 9z"/>
<path d="M30156 12767 c-16 -12 31 -169 684 -2257 763 -2445 869 -2784 935
-2995 25 -77 80 -254 124 -394 43 -139 85 -258 93 -262 7 -5 326 -9 708 -8
733 0 742 0 791 45 37 34 219 414 373 781 342 812 713 1983 1026 3233 121 485
276 1163 350 1530 33 168 62 313 64 323 4 16 -30 17 -613 17 -496 0 -621 -3
-635 -13 -15 -11 -22 -45 -37 -198 -91 -896 -345 -1969 -828 -3504 -52 -167
-241 -729 -293 -873 -29 -81 -31 -83 -48 -65 -11 11 -33 81 -55 178 -143 614
-613 2195 -1130 3800 -46 143 -108 337 -139 432 -30 95 -60 182 -66 193 -26
49 -37 50 -683 50 -477 0 -607 -3 -621 -13z"/>
<path d="M16845 11034 c-433 -42 -728 -139 -929 -306 l-29 -24 104 17 c434 74
921 34 1254 -101 388 -158 628 -455 720 -891 103 -487 -67 -998 -519 -1559
-168 -209 -605 -634 -846 -824 -325 -255 -641 -478 -945 -666 -82 -51 -179
-112 -215 -135 -36 -23 -74 -47 -85 -53 -42 -24 27 -12 149 24 803 239 1394
496 1961 853 689 433 1203 1004 1379 1532 59 177 70 249 71 474 0 227 -12 310
-72 485 -39 117 -99 235 -174 347 -71 104 -79 114 -199 233 -99 98 -186 170
-305 250 -27 18 -63 42 -79 53 -49 33 -262 136 -347 167 -226 84 -423 120
-674 125 -99 2 -198 1 -220 -1z"/>
<path d="M7054 10780 c-555 -66 -1139 -183 -1629 -327 -689 -201 -1191 -400
-1558 -617 -229 -136 -339 -275 -297 -376 19 -47 104 -117 194 -160 92 -44
322 -118 501 -160 236 -56 618 -120 741 -123 34 -1 60 -5 57 -9 -2 -5 3 -8 12
-8 8 0 136 -13 283 -30 626 -69 1185 -109 2122 -152 369 -17 1505 -17 1810 0
1036 57 1428 89 2415 198 405 44 1079 126 1350 164 77 10 223 31 325 45 102
14 228 32 280 40 52 8 202 31 334 50 139 20 256 43 280 54 22 10 86 46 141 81
55 34 170 105 255 158 85 52 193 118 240 147 47 29 131 81 188 115 95 59 119
80 90 80 -6 0 -97 -14 -202 -30 -105 -17 -261 -41 -346 -55 -1354 -214 -3313
-412 -4848 -490 -913 -46 -2417 -21 -3276 56 -759 67 -1142 158 -1238 292 -85
118 57 296 364 456 316 166 736 318 1400 507 190 54 344 102 342 106 -8 13
-170 7 -330 -12z"/>
<path d="M6460 8071 c-151 -36 -260 -72 -400 -133 -123 -55 -122 -54 -250
-137 -102 -67 -233 -195 -279 -273 -151 -258 -128 -461 69 -613 147 -113 436
-230 765 -310 654 -159 1545 -257 2680 -295 160 -5 448 -15 642 -21 562 -20
1235 10 1853 82 553 64 1159 176 1730 319 475 119 820 218 963 275 l67 27 -94
33 c-197 68 -399 186 -615 359 -156 124 -171 134 -224 146 -52 11 -64 10 -382
-44 -851 -143 -1806 -246 -2810 -301 -680 -37 -791 -40 -1445 -40 -770 0
-1071 14 -1450 66 -320 44 -514 94 -675 173 -166 82 -245 168 -261 288 -7 50
23 150 63 213 21 32 108 141 133 165 13 13 43 50 39 49 -2 -1 -56 -13 -119
-28z"/>
<path d="M7045 5544 c-373 -78 -773 -319 -873 -527 -40 -84 -56 -155 -49 -224
36 -343 510 -629 1367 -822 474 -107 918 -164 1690 -218 315 -21 1224 -25
1470 -5 906 73 1685 226 2755 543 282 84 361 110 484 158 l74 29 -39 12 c-57
19 -243 100 -369 161 -138 66 -382 202 -634 352 -130 78 -208 118 -236 122
-30 5 -84 -4 -206 -34 -887 -217 -2604 -318 -4194 -246 -492 22 -560 28 -770
75 -358 79 -525 196 -525 368 0 70 12 110 55 177 53 84 53 89 0 79z"/>
<path d="M4676 3829 c-786 -76 -1612 -269 -2181 -511 -501 -213 -795 -499
-795 -774 0 -74 15 -114 70 -183 241 -305 1258 -561 2815 -710 751 -72 1577
-121 2530 -152 555 -17 1950 -23 2525 -10 715 16 1865 57 2110 76 36 2 106 7
155 10 1792 102 3132 302 4225 631 720 217 1297 502 1577 780 108 107 146 168
159 249 16 108 -108 281 -278 388 -34 21 -34 21 -4 -40 59 -117 70 -256 28
-338 -78 -151 -364 -320 -737 -435 -38 -12 -88 -28 -110 -35 -174 -56 -723
-175 -1080 -234 -1538 -256 -4135 -424 -6930 -447 -907 -8 -1209 3 -2150 76
-1607 126 -2846 332 -3225 538 -175 95 -230 158 -230 262 0 67 85 192 180 264
220 168 687 336 1280 460 187 39 655 125 691 127 13 1 2 5 -26 9 -66 11 -486
10 -599 -1z"/>
<path d="M18780 2369 c-760 -560 -1757 -953 -3125 -1233 -1198 -246 -2628
-389 -4357 -437 -476 -13 -1981 -7 -2408 10 -140 6 -322 13 -405 16 -588 23
-1359 66 -1790 101 -189 14 -1150 98 -1530 133 -110 10 -202 17 -203 15 -20
-15 328 -118 748 -220 124 -30 257 -61 295 -69 39 -8 133 -27 210 -44 716
-152 1763 -277 2770 -331 1897 -101 4153 15 6050 310 1232 193 1943 388 2645
728 430 209 719 407 956 655 110 115 165 190 219 295 27 53 71 175 62 171 -1
0 -63 -45 -137 -100z"/>
</g>
</svg>
